<svg xmlns="http://www.w3.org/2000/svg" viewBox="0 0 238.63 102.13"><defs><style>.cls-1{fill:#fff;}</style></defs><title>sdas资源 2</title><g id="图层_2" data-name="图层 2"><g id="图层_1-2" data-name="图层 1"><path class="cls-1" d="M35.9,63.95a16.27,16.27,0,0,0-5.8,1.53c-4.14,1.84-8.22,6.07-9.61,7.16-2.41,1.89-5.75,4.55-10.84,4.63-.16,0-.18.15,0,.17a18.92,18.92,0,0,0,9-1.59c1.71-.74,4.73-2.32,8.89-4.68a13.84,13.84,0,0,1,6.42-1.76C34.61,67.72,35.29,65.84,35.9,63.95Z"/><path class="cls-1" d="M59.61,45.31,59.33,45c-2.78-3.27-5.74-4.48-9.3-3.81-4.7.88-7.46,6-8.94,10.06-1.33,3.7-2.33,7-3.22,9.9-2.19,7.21-3.77,12.42-8.48,17.78C22.81,86.42,11,90.28.16,88.37c-.18,0-.21.09-.06.14,4.08,1.33,19.52,5.56,28.84-3.19C34.56,80,36,73,38.25,65.66c.87-2.87,1.83-6.12,3.16-9.72,2.12-5.72,4.77-8.54,7.54-9.13,1.81-.39,3.81.29,5.67,2.52a21.48,21.48,0,0,1,3,4.72A73.83,73.83,0,0,1,59.61,45.31Z"/><path class="cls-1" d="M129.31,15.86c-3-.14-5,.95-6.85,3.59a34.19,34.19,0,0,0-3.49,7c-1.24,3.18-3.19,8.35-6.48,11-.94.75-1.62.78-1.84.61s-.15-.35.19-.85a22.55,22.55,0,0,0,3.79-10c.24-2.32-.38-4-2.05-4.93-1.5-.86-3.52-.68-6.17.56-.91.4-15.27,6.94-20.66,22.17-1.56,4.41-2.11,9.26.27,18.54,1.8,7.36,1.39,11.2-1.35,12.44s-7.16,0-10.17-3.07c-4.3-4.4-6.11-8.61-8.4-14.53-1-2.52-1.78-4.51-2.5-6.15a54.59,54.59,0,0,0-2.73,9.76c2.32,6,4.39,10.66,9.1,15.48,4.17,4.27,10.14,5.87,14.51,3.88,6.85-3.12,4-12.27,3-16.4-2.14-8.36-1.7-12.58-.37-16.33C92,34.75,106.47,29,106.6,29l0,0c2-.94,4.71-1.41,5.72-1.08.82.27.59,1.25.3,2.33-.56,2.07-2.26,4.12-3.62,5.66-1.67,1.91-2.86,3.66-2.91,4.89-.07,1.43,1.53,1.88,4,1.17a8.32,8.32,0,0,0,3.53-2c3.4-3.17,3.88-6.87,5.68-11.37,1-2.56,1.6-4.19,2.64-5.32,1.74-1.88,4.35-2.18,6.28-2.43,9.1-1.17,13.22-5.12,14.22-6.39.07-.1,0-.18-.12-.12C141.31,14.78,137.65,16.24,129.31,15.86Z"/><path class="cls-1" d="M54.61,75.57a49.3,49.3,0,0,1-3.41,7.86C44.78,94.92,33.94,99.5,20.57,95.78c-.13,0-.17.1-.06.15C25,97.84,42.75,104.31,51.84,92c3.95-5.34,5-11.45,5.79-15.84Q56.14,75.9,54.61,75.57Z"/><path class="cls-1" d="M84.79,7.71c-.33.1-9.34,2.94-13.65,8.54l-.06.08c-.82,1.09-3.07,3.91-1.32,5.36.89.74,3.73,1.14,9.08-.72,2.36-.82,3.68-.91,3.34.56s-3.47,3.69-5.27,4.84c-5.57,3.53-9.25,6.35-12.74,11.91-4.7,7.5-5.59,16.47-6.44,23-.28,2.2-.58,4.47-1,6.7l0,.2s-.11.55-.33,1.42q1.15.43,2.25.82c.17-1.14.31-2.27.46-3.39.83-6.42,1.7-13.61,5.82-20.47a43.91,43.91,0,0,1,7.4-9.2C77.19,33,82.73,26.08,83.16,21.64a1.94,1.94,0,0,0-1.53-2.29c-1.92-.37-3.65.17-5.78.69-1.73.42-2-.62-1.73-1.22a4.22,4.22,0,0,1,.21-.47c1.91-3.71,6.29-6.88,10.14-8.77,5.5-2.7,9.64-2,11.32-1.5.12,0,.17-.08.06-.14C94.3,7.2,90.51,6,84.79,7.71Z"/><path class="cls-1" d="M139,9.07a77.4,77.4,0,0,1-7.84-.93A5.64,5.64,0,0,1,128,5.35C125.71,1.28,120.14-1.6,111,1c-.73.21-14.15,4-23.86,21-5,8.67-9.2,18.61-8.5,32.78l.09,1.16c.26,7.26.9,12.58-2.54,15.63a6.35,6.35,0,0,1-.58.45l.43.45c.2.2.41.4.61.59a9.54,9.54,0,0,0,1.07-.81c4.89-4.31,6.26-11.82,6.07-21.3l-.09-1.15a57.21,57.21,0,0,1,4.1-25.59C94.32,8,112.57,5.23,113.13,5.1c7.45-1.7,10.92.56,13.06,2.42,3.4,3,8.13,2.75,11.95,2.68a9,9,0,0,1,4.51.79c.11.06.15,0,.11-.1C142.43,10.25,141.51,9.21,139,9.07Z"/><path class="cls-1" d="M64.68,73.06a62.71,62.71,0,0,1-15-5.31,40.49,40.49,0,0,0-9.86-3.53c-.51,1.68-1.13,3.81-1.55,5.5a43.45,43.45,0,0,1,8.5,2.47,48.61,48.61,0,0,0,19.94,3.53C66,74.84,65.32,74,64.68,73.06Z"/><path class="cls-1" d="M149.23,55.11h-8.54a1.33,1.33,0,1,1,0-2.66h8.54a1.33,1.33,0,1,1,0,2.66Z"/><path class="cls-1" d="M150.08,64.34h-12.6a1.33,1.33,0,0,1,0-2.66h12.6a1.33,1.33,0,1,1,0,2.66Z"/><path class="cls-1" d="M161.75,59.37h-8.52a1.33,1.33,0,0,1,0-2.66h8.52a1.33,1.33,0,0,1,0,2.66Z"/><path class="cls-1" d="M136.76,61a1.33,1.33,0,0,1-.8-2.39c.16-.12,3.41-2.74,3.41-9.44a1.33,1.33,0,0,1,2.66,0c0,8.14-4.29,11.43-4.47,11.57A1.32,1.32,0,0,1,136.76,61Z"/><path class="cls-1" d="M136.85,81.07a1.33,1.33,0,0,1-.94-2.28c4.86-4.83,7-8.46,7-17.16V54.16a1.33,1.33,0,1,1,2.66,0v7.48c0,9.59-2.52,13.79-7.82,19A1.33,1.33,0,0,1,136.85,81.07Z"/><path class="cls-1" d="M151.7,81.07a1.33,1.33,0,0,1-.94-.39c-5.29-5.26-7.81-9.46-7.81-19a1.33,1.33,0,1,1,2.66,0c0,8.7,2.17,12.33,7,17.16a1.33,1.33,0,0,1-.94,2.28Z"/><path class="cls-1" d="M157.62,77.58c-3.5,0-5.84-2.5-5.84-6.23V53a1.33,1.33,0,0,1,2.66,0V71.35c0,2.27,1.16,3.57,3.18,3.57s3.18-1.2,3.18-3.57V53a1.33,1.33,0,0,1,2.66,0V71.35C163.46,75.19,161.23,77.58,157.62,77.58Z"/><path class="cls-1" d="M125.38,56.1H100.19a1.33,1.33,0,0,1,0-2.66h25.19a1.33,1.33,0,0,1,0,2.66Z"/><path class="cls-1" d="M113.37,55.21A1.33,1.33,0,0,1,112,53.88V48.48a1.33,1.33,0,1,1,2.66,0v5.39A1.33,1.33,0,0,1,113.37,55.21Z"/><path class="cls-1" d="M98.71,70.88a1.33,1.33,0,0,1-.77-2.42,15.06,15.06,0,0,0,4.82-6.83,1.33,1.33,0,1,1,2.51.88,17.49,17.49,0,0,1-5.81,8.14A1.32,1.32,0,0,1,98.71,70.88Z"/><path class="cls-1" d="M125.41,73.35A1.33,1.33,0,0,1,124.08,72h0a18.52,18.52,0,0,0-2.92-8.88,1.33,1.33,0,0,1,2.23-1.45A20.9,20.9,0,0,1,126.74,72a1.33,1.33,0,0,1-1.32,1.34Z"/><path class="cls-1" d="M100.3,81.77a1.33,1.33,0,0,1-.52-2.56c6-2.53,7.41-10.12,7.56-16,.12-4.59,0-8.33,0-8.36a1.33,1.33,0,0,1,2.66-.08s.12,3.84,0,8.51c-.24,9.61-3.42,16-9.19,18.42A1.33,1.33,0,0,1,100.3,81.77Z"/><path class="cls-1" d="M112.08,81.77a1.33,1.33,0,1,1,0-2.66c3,0,4.26-1.31,4.26-4.51V54.77a1.33,1.33,0,1,1,2.66,0V74.59C119,80.52,115.23,81.77,112.08,81.77Z"/><path class="cls-1" d="M200.15,56.1H175a1.33,1.33,0,0,1,0-2.66h25.19a1.33,1.33,0,0,1,0,2.66Z"/><path class="cls-1" d="M188.15,55.21a1.33,1.33,0,0,1-1.33-1.33V48.48a1.33,1.33,0,1,1,2.66,0v5.39A1.33,1.33,0,0,1,188.15,55.21Z"/><path class="cls-1" d="M173.48,70.88a1.33,1.33,0,0,1-.77-2.42,15.06,15.06,0,0,0,4.82-6.83,1.33,1.33,0,1,1,2.51.88,17.49,17.49,0,0,1-5.81,8.14A1.32,1.32,0,0,1,173.48,70.88Z"/><path class="cls-1" d="M200.18,73.35A1.33,1.33,0,0,1,198.85,72h0a18.52,18.52,0,0,0-2.92-8.88,1.33,1.33,0,0,1,2.23-1.45A20.89,20.89,0,0,1,201.51,72a1.33,1.33,0,0,1-1.32,1.34Z"/><path class="cls-1" d="M175.07,81.77a1.33,1.33,0,0,1-.52-2.56c6-2.53,7.41-10.12,7.56-16,.12-4.59,0-8.33,0-8.36a1.33,1.33,0,0,1,2.66-.08s.12,3.84,0,8.51c-.24,9.61-3.42,16-9.19,18.42A1.33,1.33,0,0,1,175.07,81.77Z"/><path class="cls-1" d="M186.85,81.77a1.33,1.33,0,1,1,0-2.66c3,0,4.26-1.31,4.26-4.51V54.77a1.33,1.33,0,1,1,2.66,0V74.59C193.77,80.52,190,81.77,186.85,81.77Z"/><path class="cls-1" d="M236.35,52.21H224.71a1.33,1.33,0,1,1,0-2.66h11.64a1.33,1.33,0,1,1,0,2.66Z"/><path class="cls-1" d="M237.29,60.22H222.46a1.33,1.33,0,1,1,0-2.66h14.83a1.33,1.33,0,1,1,0,2.66Z"/><path class="cls-1" d="M211.14,66.64a1.33,1.33,0,0,1-.67-2.48,25.29,25.29,0,0,0,8.3-8.82,1.33,1.33,0,1,1,2.34,1.28,27.56,27.56,0,0,1-9.29,9.84A1.33,1.33,0,0,1,211.14,66.64Z"/><path class="cls-1" d="M211.56,56.7a1.33,1.33,0,0,1-.52-2.56h0a18.06,18.06,0,0,0,6.8-5.53A1.33,1.33,0,1,1,220,50.15a20.49,20.49,0,0,1-7.94,6.44A1.33,1.33,0,0,1,211.56,56.7Z"/><path class="cls-1" d="M225.49,80.87a1.33,1.33,0,1,1,0-2.66c2.41,0,5.28-.93,5.28-5.38V58.89a1.33,1.33,0,0,1,2.66,0V72.83C233.43,77.79,230.39,80.87,225.49,80.87Z"/><path class="cls-1" d="M216.26,80.87a1.33,1.33,0,0,1-1.33-1.33V61a1.33,1.33,0,0,1,2.66,0V79.54A1.33,1.33,0,0,1,216.26,80.87Z"/><rect class="cls-1" x="65.55" y="87.86" width="171.61" height="0.56"/><path class="cls-1" d="M68.15,102.13a2.83,2.83,0,0,1-2.07-.84c-.78-.78-.76-1.74-.76-3.06s0-2.29.76-3.07a2.82,2.82,0,0,1,2.07-.84A2.71,2.71,0,0,1,71,96.75H69.45a1.27,1.27,0,0,0-1.3-1.09,1.24,1.24,0,0,0-1,.4c-.29.32-.38.69-.38,2.17s.09,1.84.38,2.17a1.24,1.24,0,0,0,1,.4,1.27,1.27,0,0,0,1.3-1.09H71A2.72,2.72,0,0,1,68.15,102.13Z"/><path class="cls-1" d="M86.65,101.29a3,3,0,0,1-4.15,0c-.78-.78-.76-1.74-.76-3.06s0-2.29.76-3.07a3,3,0,0,1,4.15,0c.78.78.77,1.74.77,3.07S87.42,100.51,86.65,101.29Zm-1.11-5.22a1.25,1.25,0,0,0-1-.41,1.27,1.27,0,0,0-1,.41c-.29.33-.37.68-.37,2.16s.07,1.83.37,2.16a1.27,1.27,0,0,0,1,.41,1.25,1.25,0,0,0,1-.41c.29-.32.38-.68.38-2.16S85.83,96.39,85.54,96.06Z"/><path class="cls-1" d="M103.41,101.26a2.86,2.86,0,0,1-2.17.87,2.83,2.83,0,0,1-2.07-.84c-.78-.78-.76-1.74-.76-3.06s0-2.29.76-3.07a2.79,2.79,0,0,1,2.07-.84,2.76,2.76,0,0,1,2.89,2.46h-1.51a1.31,1.31,0,0,0-1.38-1.12,1.25,1.25,0,0,0-1,.41c-.29.33-.37.68-.37,2.16s.07,1.84.37,2.17a1.24,1.24,0,0,0,1,.4,1.42,1.42,0,0,0,1.07-.43,1.48,1.48,0,0,0,.35-1V99h-1.41V97.79h2.9v1.12A3.06,3.06,0,0,1,103.41,101.26Z"/><path class="cls-1" d="M115.39,102.07V94.38h1.5v7.69Z"/><path class="cls-1" d="M131.34,95.72v6.35h-1.5V95.72h-2V94.38h5.51v1.34Z"/><path class="cls-1" d="M148.73,101.29a3,3,0,0,1-4.15,0c-.78-.78-.76-1.74-.76-3.06s0-2.29.76-3.07a3,3,0,0,1,4.15,0c.78.78.77,1.74.77,3.07S149.51,100.51,148.73,101.29Zm-1.11-5.22a1.25,1.25,0,0,0-1-.41,1.27,1.27,0,0,0-1,.41c-.29.33-.37.68-.37,2.16s.08,1.83.37,2.16a1.27,1.27,0,0,0,1,.41,1.25,1.25,0,0,0,1-.41c.29-.32.38-.68.38-2.16S147.91,96.39,147.62,96.06Z"/><path class="cls-1" d="M174,102.07l-.45-1.36H170.8l-.46,1.36h-1.57l2.8-7.69h1.18l2.81,7.69Zm-1.79-5.42-1,2.8h1.91Z"/><path class="cls-1" d="M188.68,102.13a2.83,2.83,0,0,1-2.07-.84c-.78-.78-.76-1.74-.76-3.06s0-2.29.76-3.07a2.83,2.83,0,0,1,2.07-.84,2.71,2.71,0,0,1,2.83,2.43H190a1.27,1.27,0,0,0-1.29-1.09,1.24,1.24,0,0,0-1,.4c-.29.32-.38.69-.38,2.17s.08,1.84.38,2.17a1.24,1.24,0,0,0,1,.4A1.27,1.27,0,0,0,190,99.7h1.52A2.72,2.72,0,0,1,188.68,102.13Z"/><path class="cls-1" d="M205.25,95.72v6.35h-1.5V95.72h-2V94.38h5.52v1.34Z"/><path class="cls-1" d="M218.2,102.07V94.38h1.5v7.69Z"/><path class="cls-1" d="M235.87,101.29a3,3,0,0,1-4.16,0c-.78-.78-.76-1.74-.76-3.06s0-2.29.76-3.07a3,3,0,0,1,4.16,0c.78.78.77,1.74.77,3.07S236.65,100.51,235.87,101.29Zm-1.11-5.22a1.24,1.24,0,0,0-1-.41,1.27,1.27,0,0,0-1,.41c-.29.33-.37.68-.37,2.16s.07,1.83.37,2.16a1.27,1.27,0,0,0,1,.41,1.24,1.24,0,0,0,1-.41c.29-.32.38-.68.38-2.16S235.05,96.39,234.76,96.06Z"/><path class="cls-1" d="M162.35,40.58h-4.66V41c0,.66-.18.94-.69,1.11a8.55,8.55,0,0,1-2.24.16,4.17,4.17,0,0,0-.49-1.09c.67,0,1.5,0,1.7,0s.29-.06.29-.24v-.33h-4.65v-1h4.65v-.51h-3.94v-1h3.94v-.45c-1.12.05-2.26.06-3.32.05a3.36,3.36,0,0,0-.26-.91,55.54,55.54,0,0,0,7.6-.43l.88.84c-1,.17-2.2.29-3.48.38v.52h4v1h-4v.51h4.66ZM153.08,35h-1.35v-2.7h1.78a7.07,7.07,0,0,0-.66-1l1.26-.5a6.52,6.52,0,0,1,.86,1.28l-.58.26h1.85V30.84h1.46v1.48h1.84l-.64-.23a9,9,0,0,0,.94-1.28l1.51.45a14.77,14.77,0,0,1-1,1.06h2V35h-1.41V33.5h-7.8Zm.5,1.31V34h6.81v2.36Zm1.34-.86H159v-.62h-4.06Z"/><path class="cls-1" d="M180.19,37.38l-1.2.44v2.68c0,.67-.11,1-.49,1.24a3,3,0,0,1-1.67.28,5.16,5.16,0,0,0-.38-1.33c.44,0,.85,0,1,0s.21,0,.21-.2V38.29l-1.11.39-.28-1.39,1.39-.42V34.32h-1.23V33h1.23V30.84H179V33h1v1.33h-1v2.11l1-.32Zm7.52,3.17v1.27h-7.81V40.55h3.19V38.13h-2.25V36.87h.24a10.71,10.71,0,0,0-.77-1.07A7.77,7.77,0,0,0,182.48,34l1.23.46a11.23,11.23,0,0,1-2.49,2.42h5.6v1.27h-2.29v2.42Zm-6.11-6.09h-1.3V32.23h2.92c-.12-.38-.29-.78-.44-1.12l1.39-.32a13.23,13.23,0,0,1,.61,1.44h2.75v2.18h-1.36v-.95H181.6Zm3.34-.53c.73.59,1.84,1.42,2.4,1.93l-.91,1a27.18,27.18,0,0,0-2.35-2Z"/><path class="cls-1" d="M207.66,30.86c0,.51,0,1.17-.08,1.9.17,1.64.91,6.23,5.16,8.1a3.87,3.87,0,0,0-1.06,1.25,9.41,9.41,0,0,1-4.75-5.75,9.9,9.9,0,0,1-4.48,5.83,4.6,4.6,0,0,0-1.2-1.18c4.94-2.64,4.71-8.09,4.76-10.14Z"/><path class="cls-1" d="M237.59,40.45v1.42H226.65V40.45h4.69V38h-3.3V36.6h3.3V34.46h-2.52a10.05,10.05,0,0,1-1.13,1.77,11.5,11.5,0,0,0-1.3-.86A10.5,10.5,0,0,0,228.55,31l1.49.33c-.17.59-.37,1.16-.57,1.72h1.87V30.86h1.52V33H237v1.41h-4.1V36.6h3.64V38h-3.64v2.45Z"/></g></g></svg>