<?xml version="1.0" encoding="utf-8"?>
<!-- Generator: Adobe Illustrator 21.1.0, SVG Export Plug-In . SVG Version: 6.00 Build 0)  -->
<svg version="1.1" id="图层_1" xmlns="http://www.w3.org/2000/svg" xmlns:xlink="http://www.w3.org/1999/xlink" x="0px" y="0px"
	 viewBox="0 0 172 172" style="enable-background:new 0 0 172 172;" xml:space="preserve">
<style type="text/css">
	.st0{fill:#01A1FF;}
</style>
<path class="st0" d="M31.6,0C21.4,0,13.1,8.8,13.1,19.4s8.3,19.4,18.5,19.4c10.3,0,18.5-8.8,18.5-19.4C50.1,8.6,41.8,0,31.6,0z
	 M72.5,84.7l16.7-6.2l1.3-0.4l1.2,0.8l12.6,8.3l10.5-31.4l1.6-4.8l3.3,3.7l9.5,10.7l14-25.3l5,3.1l-15.9,28.8l-2,3.6l-2.7-3l-8.9-10
	l-10.1,30.4l-1.2,3.7l-3.1-2.1L90,84.9l-15.4,5.6L72.5,84.7L72.5,84.7z M75.6,161.4h56.6v10.5H75.6
	C75.6,171.9,75.6,161.4,75.6,161.4z M111.2,127.5H172V5.4H59.7v12.4h100.6v97.3H64.5v12.4h30.6v30.7h16.1V127.5L111.2,127.5z
	 M0,94.5l11.7,9.3L7.9,172h16.9l2.9-58.1h7.2l3.5,58.1h15.9l-2.5-68.2l-1.3-41.6l38.7-0.6l8.3-15.4L54,44H34.4l1.4,2.6l-2,4.1
	L38.1,82l-6.5,7v0.5l-0.2-0.3l-0.3,0.3V89l-6.6-7.1l4.2-31.3l-2-4.1l1.4-2.6H8.9C8.9,43.9,0,94.5,0,94.5z"/>
</svg>
