<?xml version="1.0" encoding="utf-8"?>
<!-- Generator: Adobe Illustrator 21.1.0, SVG Export Plug-In . SVG Version: 6.00 Build 0)  -->
<svg version="1.1" id="图层_1" xmlns="http://www.w3.org/2000/svg" xmlns:xlink="http://www.w3.org/1999/xlink" x="0px" y="0px"
	 viewBox="0 0 172 172" style="enable-background:new 0 0 172 172;" xml:space="preserve">
<style type="text/css">
	.st0{fill:#01A1FF;}
</style>
<path class="st0" d="M123.5,163.6c21.9,0,39.7-16.9,39.7-37.8s-17.8-37.8-39.7-37.8S83.8,105,83.8,125.9S101.6,163.6,123.5,163.6z
	 M123.5,172C96.7,172,75,151.3,75,125.9s21.7-46.1,48.5-46.1s48.5,20.7,48.5,46.1S150.3,172,123.5,172z M8.8,8.4h141.1v62.9h8.8V4.2
	c0-2.3-2-4.2-4.4-4.2H4.4C2,0,0,1.9,0,4.2v159.4c0,2.3,2,4.2,4.4,4.2h61.7v-8.4H8.8V8.4z M35.3,50.3h79.4v8.4H35.3
	C35.3,58.7,35.3,50.3,35.3,50.3z M35.3,75.5h44.1v8.4H35.3C35.3,83.9,35.3,75.5,35.3,75.5z M35.3,100.7h26.5v8.4H35.3V100.7z
	 M127.9,100.7c0-2.3-2-4.2-4.4-4.2c-2.4,0-4.4,1.9-4.4,4.2v25.2c0,1.5,0.8,2.8,2.1,3.6l22.1,12.6c2.1,1.1,4.8,0.4,6-1.7
	c1.1-1.9,0.5-4.3-1.5-5.5l-19.9-11.4V100.7z"/>
</svg>
