<?xml version="1.0" encoding="utf-8"?>
<!-- Generator: Adobe Illustrator 22.1.0, SVG Export Plug-In . SVG Version: 6.00 Build 0)  -->
<svg version="1.1" id="图层_1" xmlns="http://www.w3.org/2000/svg" xmlns:xlink="http://www.w3.org/1999/xlink" x="0px" y="0px"
	 viewBox="0 0 128.1 128" style="enable-background:new 0 0 128.1 128;" xml:space="preserve">
<style type="text/css">
	.st0{fill:#4CADEA;}
</style>
<path class="st0" d="M116.8,83.5V31.5c0-11.2-9.1-20.3-20.3-20.3H31.6c-11.2,0-20.3,9.1-20.3,20.3v64.9c0,11.2,9.1,20.3,20.3,20.3
	h64.9c10,0,18.3-7.2,20-16.7c-5.4-2.3-28.7-12.4-40.8-18.2C66.4,93,56.7,99.7,42.1,99.7s-24.3-9-23.2-20c0.8-7.2,5.7-19,27.2-17
	C57.5,63.9,62.7,66,72,69c2.4-4.4,4.4-9.2,5.9-14.3h-41v-4.1h20.3v-7.3H32.4v-4.5h24.7V28.3c0,0,0.2-1.7,2-1.7h10.1v12.2h26.4v4.5
	H69.3v7.3h21.5c-2,8.1-5,15.4-8.7,21.9C88.4,74.8,116.8,83.5,116.8,83.5z M40.5,92.8c-15.4,0-17.8-9.7-17-13.8s5.3-9.3,13.8-9.3
	c9.9,0,18.7,2.5,29.3,7.7C59.2,87,50,92.8,40.5,92.8L40.5,92.8z"/>
</svg>
