<?xml version="1.0" encoding="utf-8"?>
<!-- Generator: Adobe Illustrator 21.1.0, SVG Export Plug-In . SVG Version: 6.00 Build 0)  -->
<svg version="1.1" id="图层_1" xmlns="http://www.w3.org/2000/svg" xmlns:xlink="http://www.w3.org/1999/xlink" x="0px" y="0px"
	 viewBox="0 0 172 172" style="enable-background:new 0 0 172 172;" xml:space="preserve">
<style type="text/css">
	.st0{fill:#01A1FF;}
</style>
<path class="st0" d="M166.9,91.7c6.6-24.3,2.2-40.3-2.9-49.5c-7.2-13.1-18.7-18.9-25.5-20.6c-3.6-8.1-10-14.1-18.3-17.1
	c-11.4-4.2-25-2.1-34.7,5.1C59.3,0.5,43.7,19.8,37.8,34.1c-10.3,2.8-26,14.2-29.1,42.2c-4.3,5.8-7.6,17-8.5,28.8
	c-1.1,14.7,1.9,27.4,8.3,35.9c16.6,21.8,39.5,16.7,52.2,9.5c2.1,5.3,5.2,9.7,8.6,13.3c5,5.3,10.8,8.1,17.1,8.1c0.8,0,1.6,0,2.4-0.1
	c7.8-0.9,14.7-5.8,19.1-10.2c0.1,0.1,0.2,0.1,0.3,0.2c7.9,4.8,15.7,7.2,23,7.2c5.8,0,11.2-1.5,16.1-4.6c8.1-5.1,13.9-14.3,15.9-25.2
	C176.3,118,172.3,100.5,166.9,91.7L166.9,91.7z M42.8,84.9c-1-3.4-2-8.7-0.8-13c0.9-3.3,3.2-5.8,6.7-7.6c8.8-4.5,12.9,1,13.3,1.5
	c1.4,2.3,3.9,3.1,6.1,2.1c2.2-1,3.6-3.7,3.5-6.7c0-0.1-0.3-8.2,3.8-12.2c3.2-3.1,8.8-3.4,16.2-0.9c-2.7,9.3-1.1,19.9-0.1,24.3
	c-2.8,3.1-5.1,6.9-7,11.6c-8.8,2.3-13.9,7-16.7,13.7C60.9,88.4,51.6,84.4,42.8,84.9z M103.4,148.6c-1.4,2.2-8.1,9-15.5,9.8
	c-4.3,0.5-8-1.1-11.5-4.8c-11.1-11.9-7.5-22.1-2-31.4c0.7-1.1,1-2.5,1.1-3.9c0.2-14.5,2.1-19.3,13.7-21.5c1.9-0.4,3.5-2,4.2-4.2
	c6.7-21.1,23.4-13.8,25.3-12.9c2.8,1.4,5.9-0.3,7-3.8c1.1-3.5-0.3-7.4-3-8.8c-0.5-0.2-10.7-5.2-21.2-1.4c-0.7-5-0.9-12,1.7-16
	c2.1-3.2,6.4-4.4,12.6-3.4c3.3,0.5,10.8,2.3,11,8.1c0.1,2.2,0.9,4.2,2.4,5.4c0.9,0.8,2,1.2,3.1,1.1c1.4,1.2,4.3,5.2,4.5,9.9
	c0.1,4.4-2.5,8.3-7.4,11.3c-1.2,0.6-29.6,14.7-38.8,43.3c-1.1,3.5,0.2,7.4,3,8.8c0.7,0.3,1.3,0.5,2,0.5c2.1,0,4.2-1.6,5-4.2
	c7.4-23.2,32.4-35.6,33.1-36c14.3-8.9,15.7-22.9,12.2-33c-1.7-4.9-5.2-10.4-9.1-12.8c-1.6-5.8-6.2-13.7-19.6-15.8
	c-7.8-1.2-13.9,0.1-18.5,4c-0.4-0.4-0.9-0.7-1.4-0.9c-12.3-4.9-21.9-4.1-28.4,2.3c-3.5,3.4-5.5,7.9-6.6,12
	C58,48.6,52.1,48,44.7,51.8c-8.1,4.1-11.5,10.8-12.9,15.7c-2.1,7.5-1,15.1,0.3,20.3c-10.4,5.2-15.4,16.6-12.1,27.9
	c2.4,8.4,6.8,11.9,10,13.3c1.9,0.9,3.9,1.2,5.8,1.2c7.2,0,13.7-4.8,14.6-5.4c2.5-1.9,3.3-6.1,1.8-9.2c-1.5-3.2-4.8-4.2-7.4-2.3
	c-1.8,1.3-7.6,4.7-11.3,3.1c-1-0.4-2.4-1.4-3.5-5.2c-1.9-6.6,4.9-10.3,6.2-10.9c7.8-3.7,21.5-2.4,28.2,16
	c-4.2,7.7-6.1,14.7-6.2,20.9c-4.4,2.8-26.5,15.2-42-5.2c-5.8-7.6-5.9-19.2-5.4-25.4C11.8,95.1,15.3,86.6,17,85
	c1.2-1.1,2-2.9,2.2-4.8C21.5,50,41.2,47,42,46.8c2-0.2,3.7-1.9,4.5-4.2c1-3.1,10.9-30.3,38.2-19.3c1.6,0.7,3.4,0.3,4.8-0.9
	c7.2-6.3,18.6-8.4,27.7-5.1c4.4,1.6,10.2,5.2,12.7,13c0.8,2.6,2.8,4.2,5,4.2c2.6,0,13.9,3.6,20.2,15.2c5.6,10.2,5.8,24,0.5,41
	c0,0.1-0.1,0.3-0.1,0.4c-3.4,0-6.6,0.8-9.8,2.5c-6.2,3.3-10.7,9.2-13.9,14.6c-1.6-1.6-3.9-2-5.8-0.7c-2.7,1.7-3.7,5.7-2.4,9.1
	c2.9,7.1,3.4,13,1.5,17.4c-3.5,8.1-14.4,11.6-18.4,12.2C105.5,146.4,104.2,147.2,103.4,148.6L103.4,148.6z M153.9,132.1
	c-0.6,0.9-0.9,1.9-1.1,3c-1.1,7.7-4.9,13.8-10.5,17.4c-5.6,3.5-12.4,4.1-19.9,1.7c4.7-2.9,9.5-7.3,12.3-13.9
	c2.1-4.9,2.8-10.3,2.2-16.2c0.9-2.6,5.4-14,13.1-18c3.3-1.7,6.8-1.9,10.6-0.4C161.9,111.4,161.6,120.3,153.9,132.1L153.9,132.1z"/>
</svg>
