<?xml version="1.0" standalone="no"?><!DOCTYPE svg PUBLIC "-//W3C//DTD SVG 1.1//EN" "http://www.w3.org/Graphics/SVG/1.1/DTD/svg11.dtd"><svg t="1517118090672" class="icon" style="" viewBox="0 0 1024 1024" version="1.1" xmlns="http://www.w3.org/2000/svg" p-id="17627" xmlns:xlink="http://www.w3.org/1999/xlink" width="60" height="60"><defs><style type="text/css"></style></defs><path d="M768 128H256a32 32 0 0 1 0-64h512a32 32 0 0 1 0 64zM928 896h-832C43.072 896 0 852.928 0 800v-512C0 235.072 43.072 192 96 192h832c52.928 0 96 43.072 96 96v512c0 52.928-43.072 96-96 96zM96 256a32 32 0 0 0-32 32v512a32 32 0 0 0 32 32h832c17.6 0 32-14.4 32-32v-512a32 32 0 0 0-32-32h-832z" p-id="17628" fill="#E94831"></path><path d="M800 608h-192c-35.264 0-64-28.672-64-64v-128c0-35.264 28.736-64 64-64h192c35.328 0 64 28.736 64 64v128a64 64 0 0 1-64 64z m0-64V576v-32z m-192-128v128h192v-128h-192zM832 768H192a32 32 0 0 1 0-64h640a32 32 0 0 1 0 64zM448 640H192a32 32 0 0 1 0-64h256a32 32 0 0 1 0 64z" p-id="17629" fill="#E94831"></path></svg>