<?xml version="1.0" encoding="utf-8"?>
<!-- Generator: Adobe Illustrator 21.1.0, SVG Export Plug-In . SVG Version: 6.00 Build 0)  -->
<svg version="1.1" id="图层_1" xmlns="http://www.w3.org/2000/svg" xmlns:xlink="http://www.w3.org/1999/xlink" x="0px" y="0px"
	 viewBox="0 0 172 172" style="enable-background:new 0 0 172 172;" xml:space="preserve">
<style type="text/css">
	.st0{fill:#01A1FF;}
</style>
<path class="st0" d="M6.5,151.5h46.2V78.9L40,70.3L6.5,98.2V151.5z M63.6,151.5h46.2V79.3L87.4,97.7L63.6,85V151.5z M120.6,70.8
	v80.7h46.2V71.3l-19.7-25.4L120.6,70.8z"/>
<path class="st0" d="M14.1,78l25.1-20.5l48,28.6l56.9-52.4c0.2-0.2,0.4-0.4,0.5-0.6l9.6,9.5L169.7,0l-44.3,13.9L136,24.4
	c-0.1,0.1-0.3,0.2-0.4,0.3l-50,46L38.1,42.5l-32,26.1c-2.6,2.2-3,6-0.8,8.6C7.6,79.8,11.5,80.1,14.1,78z M165.8,159.8H6.2
	c-3.4,0-6.2,2.7-6.2,6.1c0,3.4,2.8,6.1,6.2,6.1h159.5c3.4,0,6.2-2.7,6.2-6.1C172,162.6,169.2,159.8,165.8,159.8z"/>
</svg>
