<?xml version="1.0" encoding="utf-8"?>
<!-- Generator: Adobe Illustrator 21.1.0, SVG Export Plug-In . SVG Version: 6.00 Build 0)  -->
<svg version="1.1" id="图层_1" xmlns="http://www.w3.org/2000/svg" xmlns:xlink="http://www.w3.org/1999/xlink" x="0px" y="0px"
	 viewBox="0 0 172 172" style="enable-background:new 0 0 172 172;" xml:space="preserve">
<style type="text/css">
	.st0{fill:#01A1FF;}
</style>
<path class="st0" d="M74.6,71.3L99.4,29c2.1-3.6,0.6-8.2-3.3-9.9c-8.9-3.9-18.8-6-29.2-5.7C30.4,14.2,0.5,43.9,0,79.8
	C-0.5,117.3,30.3,148,68.4,148c34.6,0,63.2-25.3,67.8-58.1c0.6-4.2-2.7-8-7-8H80.7C75.3,81.8,71.8,76,74.6,71.3z M135.7,71.3
	c-0.6,0-1.2-0.1-1.8-0.2c-4.2-1-6.7-5.1-5.7-9.2c2.2-9-3.4-18.1-12.5-20.3c-4.2-1-6.7-5.1-5.7-9.2c1-4.1,5.2-6.6,9.4-5.6
	c17.4,4.2,28.1,21.6,23.9,38.7C142.4,69,139.2,71.3,135.7,71.3L135.7,71.3z"/>
<path class="st0" d="M162.7,77.8c-0.6,0-1.2-0.1-1.8-0.2c-4.2-1-6.7-5.1-5.7-9.2c5.9-23.6-8.9-47.6-32.9-53.4
	c-4.2-1-6.7-5.1-5.7-9.2c1-4.1,5.2-6.6,9.4-5.6c32.3,7.8,52.2,40,44.3,71.8C169.4,75.5,166.2,77.8,162.7,77.8z M43.9,132.2L63,168.9
	c2.1,4.1,8.1,4.1,10.3,0l19.1-36.7c2-3.8-0.8-8.3-5.1-8.3H49.1C44.7,123.9,42,128.4,43.9,132.2L43.9,132.2z"/>
</svg>
