<?xml version="1.0" encoding="utf-8"?>
<!-- Generator: Adobe Illustrator 21.1.0, SVG Export Plug-In . SVG Version: 6.00 Build 0)  -->
<svg version="1.1" id="图层_1" xmlns="http://www.w3.org/2000/svg" xmlns:xlink="http://www.w3.org/1999/xlink" x="0px" y="0px"
	 viewBox="0 0 172 172" style="enable-background:new 0 0 172 172;" xml:space="preserve">
<style type="text/css">
	.st0{fill:#01A1FF;}
</style>
<path class="st0" d="M168.1,48.3c5.2-5.2,5.2-13.6,0-18.9L142.4,3.9c-5.3-5.2-13.8-5.2-19,0L97.2,29.8l44.7,44.4L168.1,48.3z
	 M18.7,107.7c-2.7,2.7-4.8,6-5.9,9.7L1.7,157.5c-2.2,7,4.4,13.6,11.5,11.4l40.5-11c3.7-1.2,7-3.2,9.8-5.9l10.1-10L28.8,97.6
	L18.7,107.7L18.7,107.7z M50.6,6.8c-5.7-5.7-15-5.7-20.8,0l-24.2,24c-5.7,5.7-5.7,14.9,0,20.6L17,62.9l21.3-21.1
	c2.8-2.8,7.5-2.8,10.3,0c2.8,2.8,2.8,7.4,0,10.3L27.4,73.2l10.4,10.3l12.6-12.6c2.8-2.8,7.5-2.8,10.3,0c2.8,2.8,2.8,7.4,0,10.3
	L48.1,93.7L58.4,104l21.3-21.1c2.8-2.8,7.5-2.8,10.3,0c2.8,2.8,2.8,7.4,0,10.3l-21.2,21.1l10.4,10.3l0.1-0.1L91.8,112
	c2.8-2.8,7.5-2.8,10.3,0c2.8,2.8,2.8,7.4,0,10.3l-12.5,12.5c0,0-0.1,0.1-0.1,0.1l10.3,10.3l21.2-21.1c2.8-2.8,7.5-2.8,10.3,0
	c2.8,2.8,2.8,7.4,0,10.3l-21.2,21.1l12.5,12.4c5.7,5.7,15,5.7,20.8,0l24.2-24c5.7-5.7,5.7-14.9,0-20.6
	C167.7,123.1,50.6,6.8,50.6,6.8z"/>
</svg>
