<?xml version="1.0" encoding="utf-8"?>
<!-- Generator: Adobe Illustrator 21.1.0, SVG Export Plug-In . SVG Version: 6.00 Build 0)  -->
<svg version="1.1" id="图层_1" xmlns="http://www.w3.org/2000/svg" xmlns:xlink="http://www.w3.org/1999/xlink" x="0px" y="0px"
	 viewBox="0 0 172 172" style="enable-background:new 0 0 172 172;" xml:space="preserve">
<style type="text/css">
	.st0{fill:#01A1FF;}
</style>
<path class="st0" d="M122.1,161.3H111v-10.7H66.6v10.7H55.5c-3.1,0-5.6,2.4-5.6,5.4c0,3,2.5,5.4,5.6,5.4h66.6c3.1,0,5.6-2.4,5.6-5.4
	C127.6,163.7,125.1,161.3,122.1,161.3z M149.8,0H22.2C9.9,0,0,9.6,0,21.5v75.3h172V21.5C172,9.6,162.1,0,149.8,0z M0,118.2
	c0,11.9,9.9,21.5,22.2,21.5h127.6c12.3,0,22.2-9.6,22.2-21.5v-10.7H0V118.2z"/>
</svg>
