<?xml version="1.0" standalone="no"?><!DOCTYPE svg PUBLIC "-//W3C//DTD SVG 1.1//EN" "http://www.w3.org/Graphics/SVG/1.1/DTD/svg11.dtd"><svg t="1517151563446" class="icon" style="" viewBox="0 0 1024 1024" version="1.1" xmlns="http://www.w3.org/2000/svg" p-id="51477" xmlns:xlink="http://www.w3.org/1999/xlink" width="172" height="172"><defs><style type="text/css"></style></defs><path d="M933.618571 528.862367c34.481386-101.523349 11.448062-168.002176-14.907771-206.492072-37.309357-54.426672-97.268082-78.929272-133.039563-85.710465-18.887613-33.726783-52.106548-58.791495-95.181404-71.461052-59.354632-17.447006-130.129681-8.73067-180.973779 21.454493-136.664118-37.900139-218.145936 42.552674-248.783656 101.990241-53.672069 11.859664-135.730334 59.107876-151.406019 176.086774-22.264386 24.228198-39.835282 70.995185-44.309661 120.301406-5.573008 61.18022 9.828275 114.357752 43.403523 149.745277 86.268482 90.8903 205.930984 69.641608 272.043259 39.777945 10.754891 22.103636 27.290639 40.610364 44.578943 55.458748 25.915561 22.278721 56.44475 33.836338 88.949014 33.836339 4.173357 0 8.400979-0.19249 12.656246-0.576448 40.569408-3.676772 76.724847-24.36028 99.385477-42.40933 0.430032 0.236518 0.867231 0.46382 1.314669 0.67986 41.234934 20.027197 81.921065 30.088918 119.80687 30.088918 30.116563 0 58.448494-6.369591 83.842897-19.176348 42.387829-21.385893 72.312925-59.464188 82.992049-105.21548 68.743661-88.687923 47.960836-161.440095 19.628906-198.378806zM286.939767 500.580607c-5.324204-14.33849-10.449774-36.294687-4.052538-54.105172 4.941271-13.795831 16.416977-24.172909 35.113123-31.74966 45.792247-18.585566 67.206809 3.980866 69.127618 6.149455 7.55013 9.635785 20.453133 13.095493 31.92884 8.825891 11.448062-4.296223 18.805702-15.607084 18.201609-27.824083 0-0.343002-1.427296-34.138385 20.013887-50.679252 16.705713-12.905051 45.833203-14.093781 84.527876-3.558002-14.263746 38.856448-5.527957 82.910138-0.636856 101.448606-14.595485 12.76785-26.741837 28.957525-36.314141 48.518854-46.046171 9.586638-72.513606 29.382437-87.238101 57.06932-36.32438-39.495353-84.770538-55.989121-130.671317-54.095957zM602.528869 766.280897c-7.522485 9.307118-42.085782 37.474203-80.960661 41.001487-22.621722 2.031388-41.948582-4.502024-59.903434-19.917641-57.62529-49.498712-38.984434-92.230566-10.213257-131.03582a28.046267 28.046267 0 0 0 5.517718-16.335066c0.850849-60.397971 10.816325-80.617659 71.599277-89.512151A28.150703 28.150703 0 0 0 550.669077 532.9661c34.673877-88.13912 121.728702-57.597645 131.694178-53.713024 14.357944 5.641608 30.69301-1.37303 36.430864-15.799575 5.710208-14.426544-1.345385-30.761611-15.758619-36.499464-2.467564-0.971667-55.611308-21.533332-110.430128-5.796215-3.530357-20.658934-4.720111-50.045467 8.880158-66.53002 11.173661-13.507095 33.383781-18.3255 65.806133-14.289344 16.966804 2.099989 56.472395 9.60814 57.186043 33.904939a28.167085 28.167085 0 0 0 12.436112 22.497832c4.85936 3.267218 10.569568 4.913626 16.279776 4.776425 7.41293 4.831715 22.621722 21.867119 23.307726 41.207289 0.659382 18.229254-13.123138 34.481386-38.627098 47.289167-6.286656 2.44299-154.315901 61.207865-202.08527 180.699378-5.765498 14.413234 1.262451 30.774921 15.675684 36.54042 3.432064 1.358696 6.946038 2.018078 10.432368 2.018078 11.146016-0.013311 21.715584-6.698258 26.108051-17.693763 38.627098-96.623034 168.976915-148.660982 172.5728-150.184523 74.72827-37.144512 81.811509-95.41485 63.527989-137.570256-8.867871-20.438799-27.123746-43.321612-47.576879-53.548179-8.263778-24.241509-32.505287-57.089798-102.318909-65.724223-40.43016-5.062089-72.689715 0.530373-96.444878 16.481482a28.101557 28.101557 0 0 0-7.384261-3.591789c-64.241637-20.288288-113.987105-17.02107-148.029244 9.677764-18.256899 14.303678-28.524421 32.875934-34.23463 50.01987-22.154831-7.782552-52.682996-10.212232-91.255827 5.476762-42.415473 17.199226-59.87579 44.996688-67.041964 65.298287-11.023149 31.151711-5.382565 62.789768 1.645384 84.482826-54.152271 21.749372-80.092406 69.296559-63.14096 116.299038 12.656247 35.126434 35.442814 49.581647 52.326683 55.538612 10.075032 3.55493 20.397843 4.98325 30.446254 4.98325 37.583759 0 71.599277-19.862351 76.238501-22.690323 13.232694-8.043643 17.432672-25.257203 9.416674-38.517542-7.989377-13.246004-25.229558-17.515606-38.545187-9.581519-9.168893 5.504408-39.779993 19.57464-58.943031 12.752492-5.05185-1.797943-12.436111-6.012255-18.064408-21.565073-9.965476-27.631593 25.284848-42.800454 32.449997-45.558801 40.555074-15.585582 111.902475-10.072984 146.999216 66.67234-22.132305 32.175596-31.551026 61.241653-32.459212 87.159263-23.119331 11.675364-138.271618 63.280209-218.973235-21.821044-30.061273-31.68106-30.583455-79.972611-28.222375-105.943463 4.282912-47.151967 22.594077-82.608092 31.626794-89.196794a28.127154 28.127154 0 0 0 11.420416-20.041531c12.024509-125.792503 114.535908-138.503016 118.709265-138.969908 10.377078-1.002384 19.382149-7.796887 23.33537-17.447005 5.380517-13.095493 56.746796-126.560417 199.120099-80.425169 8.510535 2.759371 17.708097 1.331051 24.927512-3.80271 37.337002-26.451053 96.691635-35.154079 144.487625-21.111491 23.088614 6.794503 53.314733 21.687939 66.354937 54.08367a28.106676 28.106676 0 0 0 26.080407 17.625162c13.644296 0 72.28528 15.154527 105.256435 63.307854 29.265714 42.731854 30.253764 100.246564 2.855616 170.925368a27.378694 27.378694 0 0 0-0.575423 1.682244c-17.457245-0.011263-34.474219 3.455613-50.928056 10.418033-32.080375 13.59003-55.942022 38.393652-72.214632 60.839266-8.330331-6.665493-20.098869-8.26685-30.241477-3.125922-13.836786 7.000304-19.409794 23.911818-12.40949 37.762938 14.989681 29.662982 17.625162 54.056026 7.824531 72.504392-17.982498 33.960228-75.222807 48.263906-95.702561 50.912698-7.218392 0.8959-13.834739 4.561409-18.392052 10.216328z m263.471291-69.003728c-2.937527 3.62353-4.913626 7.934087-5.792119 12.532356-5.957989 31.983106-25.340138 57.721535-54.550563 72.450126-29.092678 14.691731-64.799654 16.996496-103.597741 7.267538 24.67666-12.085942 49.505879-30.375606 64.146416-57.837234 10.932024-20.517638 14.734734-43.133217 11.44499-67.619435 4.864479-10.790727 28.178348-58.414706 68.170285-75.213592 17.180796-7.223511 35.256467-7.760027 55.086054-1.580879 6.894844 23.808405 4.970963 60.793191-34.907322 110.00112z" fill="#01A1FF" p-id="51478"></path></svg>