<svg xmlns="http://www.w3.org/2000/svg" viewBox="0 0 1513.62 310.67"><defs><style>.cls-1{fill:#e94831;}.cls-2{fill:#447bad;}.cls-3{fill:#54c3f1;}.cls-4{fill:#4c4948;}.cls-5{fill:#979da7;}.cls-6{fill:#4c5564;}</style></defs><title>资源 3</title><g id="图层_2" data-name="图层 2"><g id="图层_1-2" data-name="图层 1"><g id="图层_2-2" data-name="图层 2"><g id="图层_1-2-2" data-name="图层 1-2"><path class="cls-1" d="M109.2,194.51a49.72,49.72,0,0,0-17.65,4.66C79,204.76,66.52,217.63,62.3,221c-7.3,5.72-17.49,13.8-33,14-.49,0-.55.45,0,.51a57.57,57.57,0,0,0,27.25-4.85c5.19-2.25,14.38-7,27.05-14.24a42.19,42.19,0,0,1,19.52-5.35C105.27,206,107.35,200.27,109.2,194.51Z"/><path class="cls-2" d="M181.3,137.81l-.85-1C172,126.88,163,123.2,152.16,125.23c-14.3,2.68-22.68,18.13-27.18,30.61-4.06,11.24-7.1,21.28-9.79,30.13-6.66,21.94-11.47,37.78-25.79,54.09-20,22.81-55.88,34.55-88.93,28.75-.54-.13-.64.28-.19.44,12.4,4.05,59.36,16.92,87.72-9.71,17.11-16.07,21.53-37.33,28.35-59.79,2.65-8.72,5.56-18.63,9.6-29.55,6.44-17.41,14.52-26,22.93-27.77,5.51-1.18,11.6.89,17.25,7.68a65.22,65.22,0,0,1,9.05,14.36A225.19,225.19,0,0,1,181.3,137.81Z"/><path class="cls-2" d="M393.33,48.23c-9-.41-15.31,2.88-20.85,10.93-3.3,4.79-6.84,11.47-10.61,21.14s-9.71,25.41-19.7,33.41c-2.86,2.29-4.92,2.38-5.59,1.85-.49-.38-.45-1,.58-2.59a68.49,68.49,0,0,0,11.53-30.49c.74-7.06-1.15-12.07-6.25-15-4.57-2.61-10.72-2.06-18.78,1.69-2.77,1.22-46.45,21.1-62.84,67.43-4.75,13.42-6.42,28.15.82,56.39,5.48,22.38,4.22,34.06-4.1,37.85-8.76,4-21.77.06-30.94-9.33-13.07-13.39-18.6-26.19-25.55-44.19-3-7.67-5.41-13.73-7.61-18.71a166.8,166.8,0,0,0-8.31,29.68c7.07,18.25,13.36,32.42,27.68,47.09,12.69,13,30.84,17.86,44.13,11.8,20.83-9.49,12.25-37.33,9.18-49.89C259.6,171.85,261,159,265,147.63c14.83-41.95,58.84-59.38,59.25-59.56l.14-.06c6.15-2.87,14.32-4.29,17.4-3.28,2.5.82,1.79,3.79.9,7.07-1.7,6.29-6.89,12.52-11,17.23-5.08,5.8-8.69,11.12-8.86,14.88-.21,4.34,4.66,5.73,12.16,3.56a25.2,25.2,0,0,0,10.73-6.19c10.33-9.64,11.8-20.9,17.28-34.58,2.9-7.79,4.86-12.73,8-16.17,5.28-5.72,13.22-6.63,19.11-7.39,27.69-3.57,40.22-15.58,43.24-19.45.2-.32,0-.55-.36-.36C429.82,45,418.7,49.4,393.33,48.23Z"/><path class="cls-3" d="M166.1,229.87a149.57,149.57,0,0,1-10.36,23.89c-19.53,35-52.49,48.88-93.18,37.56-.39-.1-.53.3-.17.46C76,297.59,130,317.27,157.68,279.83c12-16.25,15.3-34.81,17.62-48.19Q170.76,230.88,166.1,229.87Z"/><path class="cls-3" d="M257.9,23.44c-1,.3-28.4,9-41.51,26l-.17.23c-2.49,3.3-9.33,11.9-4,16.3,2.7,2.24,11.34,3.48,27.62-2.18C247,61.28,251,61,250,65.48c-1.08,4.7-10.54,11.23-16,14.71-16.93,10.74-28.13,19.3-38.74,36.22-14.3,22.81-17,50.11-19.58,70-.86,6.68-1.75,13.6-3.08,20.39l-.09.62c0,.06-.34,1.66-1,4.32q3.5,1.32,6.83,2.48c.51-3.48.95-6.92,1.39-10.3,2.52-19.54,5.17-41.38,17.7-62.27a133.93,133.93,0,0,1,22.52-28c14.89-13.43,31.73-34.37,33-47.87.6-6.13-4.64-7-4.64-7-5.85-1.12-11.1.51-17.57,2.09-5.25,1.29-6.14-1.9-5.25-3.72a14,14,0,0,1,.64-1.42c5.81-11.3,19.13-20.92,30.86-26.66,16.74-8.2,29.32-6.07,34.44-4.56.36.11.52-.24.17-.43C286.84,21.9,275.31,18.26,257.9,23.44Z"/><path class="cls-1" d="M422.91,27.6c-1.08-.11-18.73-1.43-23.83-2.83-5.33-1.46-8.49-6-9.9-8.51C382.36,3.89,365.42-4.88,337.48,3c-2.23.63-43,12-72.58,63.74-15.08,26.38-28,56.59-25.85,99.71l.28,3.52c.79,22.09,2.75,38.27-7.74,47.53a18.15,18.15,0,0,1-1.77,1.37c.44.46.86.91,1.31,1.37.61.62,1.24,1.22,1.87,1.8a29.19,29.19,0,0,0,3.27-2.47c14.86-13.11,19-36,18.47-64.79l-.27-3.5c-1.7-33.1,4-57.07,12.47-77.84,19.95-49.23,75.48-57.55,77.19-57.94,22.65-5.17,33.21,1.7,39.71,7.36,10.34,9,24.74,8.36,36.34,8.16,8.23-.14,12.26,1.56,13.73,2.39.33.17.47,0,.35-.29C433.23,31.18,430.43,28,422.91,27.6Z"/><path class="cls-1" d="M196.75,222.23c-12-2.26-27.09-7.3-45.63-16.15-12.33-5.88-21.91-9.26-30-10.74-1.55,5.11-3.44,11.58-4.7,16.72a132.08,132.08,0,0,1,25.86,7.52c22.15,8.61,43.42,11.75,60.66,10.75C200.73,227.64,198.68,224.94,196.75,222.23Z"/><path class="cls-1" d="M453.89,167.62h-26a4.05,4.05,0,0,1,0-8.1h26a4.05,4.05,0,1,1,0,8.1Z"/><path class="cls-1" d="M456.49,195.7H418.16a4,4,0,0,1,0-8.1h38.32a4,4,0,0,1,0,8.1Z"/><path class="cls-1" d="M492,180.57H466.07a4,4,0,0,1,0-8.1H492a4,4,0,1,1,0,8.1Z"/><path class="cls-1" d="M416,185.56a4,4,0,0,1-2.44-7.28c.49-.38,10.36-8.32,10.36-28.7a4,4,0,1,1,8.1,0c0,24.77-13,34.77-13.6,35.18A4,4,0,0,1,416,185.56Z"/><path class="cls-1" d="M416.26,246.6a4,4,0,0,1-2.85-6.92C428.2,225,434.79,214,434.79,187.48V164.73a4.05,4.05,0,0,1,8.1,0v22.75c0,29.18-7.66,41.93-23.77,57.94A4,4,0,0,1,416.26,246.6Z"/><path class="cls-1" d="M461.42,246.6a4,4,0,0,1-2.85-1.18c-16.11-16-23.77-28.76-23.77-57.94a4.05,4.05,0,1,1,8.1,0c0,26.48,6.6,37.5,21.38,52.19a4,4,0,0,1-2.85,6.92Z"/><path class="cls-1" d="M479.43,236c-10.63,0-17.78-7.61-17.78-18.95v-55.8a4.05,4.05,0,0,1,8.1,0V217c0,6.89,3.53,10.85,9.68,10.85,6.42,0,9.68-3.65,9.68-10.85V161.2a4,4,0,1,1,8.1,0V217C497.2,228.71,490.39,236,479.43,236Z"/><path class="cls-2" d="M381.36,170.65H304.73a4.05,4.05,0,0,1,0-8.1h76.63a4.05,4.05,0,1,1,0,8.1Z"/><path class="cls-2" d="M344.85,167.93a4.06,4.06,0,0,1-4-4V147.47a4,4,0,0,1,8.1,0v16.41a4,4,0,0,1-4.05,4.05Z"/><path class="cls-2" d="M300.25,215.6a4,4,0,0,1-2.33-7.36,45.76,45.76,0,0,0,14.67-20.78,4,4,0,1,1,7.65,2.66,53.1,53.1,0,0,1-17.67,24.75A4,4,0,0,1,300.25,215.6Z"/><path class="cls-2" d="M381.44,223.11a4,4,0,0,1-4-4h0a56.19,56.19,0,0,0-8.89-27,4.05,4.05,0,1,1,6.8-4.41A63.5,63.5,0,0,1,385.49,219a4,4,0,0,1-3.93,4.07h-.07Z"/><path class="cls-2" d="M305.07,248.7a4.05,4.05,0,0,1-1.58-7.78c18.19-7.7,22.55-30.77,23-48.76.35-14,0-25.33,0-25.44a4.05,4.05,0,1,1,8.1-.25c0,.12.36,11.69,0,25.9-.73,29.22-10.4,48.59-27.94,56A3.86,3.86,0,0,1,305.07,248.7Z"/><path class="cls-2" d="M340.9,248.7a4.05,4.05,0,1,1,0-8.1c9.2,0,13-4,13-13.73V166.6a4.05,4.05,0,0,1,8.1,0v60.28C362,244.92,350.5,248.7,340.9,248.7Z"/><path class="cls-2" d="M608.79,170.65H532.16a4.05,4.05,0,1,1,0-8.1h76.63a4.05,4.05,0,1,1,0,8.1Z"/><path class="cls-2" d="M572.28,167.93a4.06,4.06,0,0,1-4-4V147.47a4.05,4.05,0,1,1,8.1,0v16.41a4,4,0,0,1-4,4.05Z"/><path class="cls-2" d="M527.67,215.6a4,4,0,0,1-2.33-7.36A45.74,45.74,0,0,0,540,187.46a4,4,0,1,1,7.65,2.66A53.18,53.18,0,0,1,530,214.87,4,4,0,0,1,527.67,215.6Z"/><path class="cls-2" d="M608.87,223.11a4,4,0,0,1-4-4h0a56.19,56.19,0,0,0-8.89-27,4.05,4.05,0,1,1,6.8-4.41A63.5,63.5,0,0,1,612.92,219a4,4,0,0,1-3.93,4.07h-.07Z"/><path class="cls-2" d="M532.5,248.7a4.05,4.05,0,0,1-1.58-7.78c18.19-7.7,22.55-30.77,23-48.76.35-14,0-25.33,0-25.44a4.05,4.05,0,1,1,8.1-.25c0,.12.36,11.69,0,25.9-.73,29.22-10.4,48.59-27.94,56A3.86,3.86,0,0,1,532.5,248.7Z"/><path class="cls-2" d="M568.33,248.7a4,4,0,0,1,0-8.1c9.2,0,13-4,13-13.73V166.6a4,4,0,0,1,8.1,0v60.28C589.38,244.92,577.93,248.7,568.33,248.7Z"/><path class="cls-1" d="M718.9,158.82H683.5a4,4,0,1,1,0-8.1h35.4a4,4,0,1,1,0,8.1Z"/><path class="cls-1" d="M721.77,183.16H676.66a4,4,0,1,1,0-8.1h45.11a4,4,0,1,1,0,8.1Z"/><path class="cls-1" d="M642.21,202.71a4.05,4.05,0,0,1-2-7.55,76.87,76.87,0,0,0,25.24-26.83,4,4,0,1,1,7.11,3.88,83.79,83.79,0,0,1-28.26,29.94A4,4,0,0,1,642.21,202.71Z"/><path class="cls-1" d="M643.5,172.45a4.05,4.05,0,0,1-1.57-7.78h0c.12,0,12.6-5.43,20.7-16.82a4,4,0,1,1,6.6,4.69h0c-9.48,13.34-23.57,19.35-24.16,19.6A4,4,0,0,1,643.5,172.45Z"/><path class="cls-1" d="M685.86,246a4.05,4.05,0,0,1,0-8.1c7.32,0,16-2.84,16-16.37v-42.4a4.05,4.05,0,0,1,8.1,0v42.4C710,236.61,700.75,246,685.86,246Z"/><path class="cls-1" d="M657.78,246a4,4,0,0,1-4-4V185.7a4.05,4.05,0,1,1,8.1,0V242a4,4,0,0,1-4,4Z"/><rect class="cls-4" x="199.39" y="267.23" width="521.98" height="1.71"/><path class="cls-4" d="M207.28,310.65a8.58,8.58,0,0,1-6.3-2.57c-2.36-2.36-2.3-5.28-2.3-9.32s-.06-7,2.3-9.33a8.61,8.61,0,0,1,6.3-2.56c4.37,0,7.78,2.49,8.6,7.38h-4.63a3.85,3.85,0,0,0-3.94-3.32,3.77,3.77,0,0,0-2.92,1.22c-.89,1-1.15,2.1-1.15,6.6s.26,5.61,1.15,6.6a3.8,3.8,0,0,0,2.92,1.21,3.86,3.86,0,0,0,3.94-3.31h4.63C215.06,308.15,211.61,310.65,207.28,310.65Z"/><path class="cls-4" d="M263.55,308.08a9.07,9.07,0,0,1-12.64,0c-2.36-2.36-2.3-5.28-2.3-9.32s-.06-7,2.3-9.33a9.09,9.09,0,0,1,12.64,0c2.36,2.37,2.33,5.28,2.33,9.33S265.91,305.72,263.55,308.08Zm-3.38-15.89a3.8,3.8,0,0,0-2.92-1.25,3.88,3.88,0,0,0-3,1.25c-.89,1-1.12,2.07-1.12,6.57s.23,5.58,1.12,6.56a3.88,3.88,0,0,0,3,1.25,3.8,3.8,0,0,0,2.92-1.25c.89-1,1.15-2.06,1.15-6.56s-.26-5.57-1.15-6.56Z"/><path class="cls-4" d="M314.53,308a8.7,8.7,0,0,1-6.6,2.66,8.58,8.58,0,0,1-6.3-2.57c-2.36-2.36-2.3-5.28-2.3-9.32s-.06-7,2.3-9.33a8.53,8.53,0,0,1,6.3-2.56,8.4,8.4,0,0,1,8.8,7.48h-4.59a4,4,0,0,0-4.2-3.42A3.83,3.83,0,0,0,305,292.2c-.89,1-1.12,2.07-1.12,6.57s.23,5.61,1.12,6.6a3.8,3.8,0,0,0,2.92,1.21,4.35,4.35,0,0,0,3.25-1.31,4.5,4.5,0,0,0,1.05-3.12v-.88h-4.3v-3.82h8.83v3.42C316.77,304.25,316.17,306.28,314.53,308Z"/><path class="cls-4" d="M351,310.45V287.07h4.56v23.38Z"/><path class="cls-4" d="M399.5,291.14v19.31h-4.56V291.14h-6.11v-4.07H405.6v4.07Z"/><path class="cls-4" d="M452.39,308.08a9.07,9.07,0,0,1-12.64,0c-2.36-2.36-2.3-5.28-2.3-9.32s-.06-7,2.3-9.33a9.09,9.09,0,0,1,12.64,0c2.36,2.37,2.33,5.28,2.33,9.33S454.75,305.72,452.39,308.08ZM449,292.2a3.8,3.8,0,0,0-2.92-1.25,3.88,3.88,0,0,0-3,1.25c-.89,1-1.12,2.07-1.12,6.57s.23,5.58,1.12,6.56a3.88,3.88,0,0,0,3,1.25,3.8,3.8,0,0,0,2.92-1.25c.89-1,1.15-2.06,1.15-6.56S449.89,293.19,449,292.2Z"/><path class="cls-4" d="M529.2,310.45l-1.38-4.13h-8.31l-1.41,4.13h-4.76l8.5-23.38h3.58L534,310.45ZM523.75,294l-3,8.5h5.81Z"/><path class="cls-4" d="M573.9,310.65a8.62,8.62,0,0,1-6.3-2.57c-2.36-2.36-2.3-5.28-2.3-9.32s-.06-7,2.3-9.33a8.61,8.61,0,0,1,6.3-2.56c4.37,0,7.78,2.49,8.6,7.38h-4.63a3.86,3.86,0,0,0-3.93-3.32,3.8,3.8,0,0,0-2.92,1.22c-.89,1-1.15,2.1-1.15,6.6s.26,5.61,1.15,6.6a3.8,3.8,0,0,0,2.92,1.21,3.87,3.87,0,0,0,3.93-3.31h4.63C581.68,308.15,578.25,310.65,573.9,310.65Z"/><path class="cls-4" d="M624.3,291.14v19.31h-4.57V291.14h-6.11v-4.07H630.4v4.07Z"/><path class="cls-4" d="M663.69,310.45V287.07h4.56v23.38Z"/><path class="cls-4" d="M717.44,308.08a9.06,9.06,0,0,1-12.65,0c-2.36-2.36-2.3-5.28-2.3-9.32s-.06-7,2.3-9.33a9.1,9.1,0,0,1,12.65,0c2.36,2.37,2.33,5.28,2.33,9.33S719.8,305.72,717.44,308.08Zm-3.39-15.89a3.78,3.78,0,0,0-2.91-1.25,3.88,3.88,0,0,0-3,1.25c-.89,1-1.12,2.07-1.12,6.57s.23,5.58,1.12,6.56a3.88,3.88,0,0,0,3,1.25,3.78,3.78,0,0,0,2.91-1.25c.89-1,1.15-2.06,1.15-6.56s-.25-5.57-1.15-6.56Z"/><path class="cls-4" d="M493.8,123.43H479.63v1.15c0,2-.55,2.85-2.11,3.36s-3.74.48-6.81.48a12.28,12.28,0,0,0-1.48-3.33c2,.11,4.55.11,5.18.07s.89-.18.89-.74v-1H461.17V120.5H475.3V119h-12v-3h12v-1.37c-3.4.15-6.88.19-10.1.15a9.86,9.86,0,0,0-.78-2.77c8.14,0,17.8-.41,23.13-1.3l2.66,2.56c-3,.52-6.7.89-10.58,1.15V116h12.29v2.92H479.63v1.55H493.8Zm-28.19-16.91h-4.1V98.3h5.4a20.69,20.69,0,0,0-2-3.15l3.85-1.52a19.7,19.7,0,0,1,2.63,3.89l-1.78.78h5.62V93.79h4.44V98.3h5.59l-2-.7a26.41,26.41,0,0,0,2.85-3.89l4.59,1.37a42,42,0,0,1-3.18,3.22h6.06v8.22h-4.29v-4.63H465.61Zm1.52,4v-7.18h20.72v7.18Zm4.07-2.63h12.36V106H471.2Z"/><path class="cls-4" d="M548.06,113.69c-1.18.41-2.44.89-3.66,1.33v8.14c0,2-.33,3.11-1.48,3.78s-2.74.89-5.07.85a15.52,15.52,0,0,0-1.15-4h3c.41,0,.63-.14.63-.62v-6.66L537,117.65l-.85-4.22c1.18-.33,2.63-.78,4.22-1.29V104.4h-3.74v-4h3.74V93.79h4v6.58h3.11v4H544.4v6.41l3-1Zm22.87,9.65v3.85H547.17v-3.85h9.69V116H550v-3.85h.74a31,31,0,0,0-2.33-3.25,23.58,23.58,0,0,0,6.62-5.51l3.74,1.4a33.77,33.77,0,0,1-7.58,7.37h17V116h-7v7.36ZM552.36,104.8h-4V98h8.88c-.37-1.15-.89-2.37-1.33-3.4l4.22-1A39.5,39.5,0,0,1,562,98h8.36v6.62h-4.14v-2.88H552.36Zm10.17-1.63c2.22,1.78,5.59,4.33,7.29,5.88L567,112a81.12,81.12,0,0,0-7.14-6.22Z"/><path class="cls-4" d="M631.64,93.86c0,1.55-.11,3.55-.25,5.77.52,5,2.77,18.94,15.68,24.65a11.83,11.83,0,0,0-3.22,3.81c-8.21-3.92-12.32-11.14-14.46-17.5a30,30,0,0,1-13.62,17.72,13.89,13.89,0,0,0-3.66-3.59c15-8,14.32-24.6,14.47-30.86Z"/><path class="cls-4" d="M722.66,123v4.33H689.4V123h14.28v-7.44h-10V111.3h10v-6.52H696a30.61,30.61,0,0,1-3.44,5.37,33.23,33.23,0,0,0-4-2.63c2.88-3.11,5.29-8.21,6.55-13.24l4.55,1c-.52,1.78-1.11,3.52-1.74,5.22h5.69V93.86h4.63v6.66H720.7v4.28H708.31v6.52h11.06v4.26H708.31V123Z"/></g></g><rect class="cls-5" x="778.28" y="93.6" width="3.69" height="217.07"/><path class="cls-6" d="M852.7,127.78q5.71-4.57,6.86,2.28l-3.43,9.14H898.4q4.58,3.44,0,6.86H875.55v43.41H903q4.56,3.43,0,6.86H876.7q18.27,28.56,28.56,52.55,1.13,6.85-5.72,4.57a390.71,390.71,0,0,0-25.13-46.84q-6.85,29.7-33.13,52.55-6.85,2.28-4.57-5.71,29.7-27.42,32-57.12h-32q-4.58-3.44,0-6.86h32V146.06H853.85a110.18,110.18,0,0,1-13.71,28.56q-5.73,3.42-5.72-3.43Q845.85,152.92,852.7,127.78Zm69.69,9.14h27.42q12.56,0,11.43,11.42v96q1.14,12.56-11.43,11.42H922.39Q911,256.87,911,244.31v-96Q911,136.92,922.39,136.92Zm25.14,6.85H924.68q-6.85,0-6.86,6.86V242q0,8,6.86,6.85h22.85q8,1.14,6.85-6.85v-91.4Q955.52,143.78,947.53,143.77Z"/><path class="cls-6" d="M1049.21,166.62a90.09,90.09,0,0,1-10.28,26.28v66.26q-3.43,5.7-6.86,0V200.9q-3.42,5.72-13.71,12.56-6.86,1.15-4.57-5.71,21.7-14.85,28.56-42.27Q1046.93,160.92,1049.21,166.62Zm-8-38.84c3.8-2.29,6.09-1.52,6.86,2.28q-10.29,29.72-26.28,42.27-5.71,1.15-4.57-4.57Q1034.35,151.79,1041.21,127.78Zm16,42.27h90.25q5.7,3.42,0,6.85h-26.27V250q2.26,18.28-41.13,4.57-2.3-5.72,3.42-6.85,34.27,11.41,30.85,1.14v-72h-57.12Q1052.62,173.48,1057.21,170.05Zm3.42-33.13h80q5.7,3.42,0,6.85h-80Q1056.05,140.35,1060.63,136.92Z"/><path class="cls-6" d="M1198.87,166.62A265.09,265.09,0,0,1,1224,184.9q1.14,6.85-4.57,5.71a277.21,277.21,0,0,0-24-17.13Q1193.16,167.77,1198.87,166.62Zm32,38.85q-11.43,34.28-25.13,51.41-5.71,3.42-5.71-3.43,14.84-20.56,24-50.27Q1229.71,198.62,1230.86,205.47Zm-25.13-76.55a152,152,0,0,1,25.13,18.28q1.14,6.86-5.71,4.57-8-6.86-22.85-16Q1200,128.91,1205.73,128.92ZM1264,156.34V176.9q1.14,53.7-30.84,83.4-5.73,1.14-4.57-4.57,29.68-27.4,28.56-78.83V156.34Q1260.56,150.64,1264,156.34Zm-14.85-22.85h21.71q12.56,0,11.42,11.42V222.6q-3.42,5.72-6.85,0V146.06c.76-3.8-1.53-5.72-6.86-5.72h-18.28q-6.85,0-6.85,6.86v75.4q-3.43,5.72-6.86,0V147.2Q1236.57,133.49,1249.14,133.49Zm13.71,89.11c.76-4.57,2.66-6.08,5.71-4.57a190.34,190.34,0,0,1,21.71,38.85q-2.3,6.86-6.85,2.28A173.87,173.87,0,0,0,1262.85,222.6Zm62.84-91.4V248.88q1.14,16-28.56,5.71-3.44-5.72,2.28-6.85,20.56,8,19.42-1.15V131.2Q1322.27,125.5,1325.69,131.2Zm-22.85,6.86v86.83q-3.43,5.72-6.86,0V138.06Q1299.42,132.36,1302.84,138.06Z"/><path class="cls-6" d="M1382.81,165.48h13.71q12.56,0,11.43,13.71v60.55q0,9.13,17.13-9.14,6.86-2.28,4.57,5.71-28.56,28.56-28.56,4.57V180.33q1.14-8-6.85-8h-11.43Q1377.1,168.91,1382.81,165.48Zm16-36.56a80,80,0,0,1,18.28,17.14q1.13,8-5.72,4.57a69.14,69.14,0,0,0-17.13-16Q1391.95,128.93,1398.81,128.92Zm36.56,4.57h66.26q4.56,3.42,0,6.85h-29.71v66.27h38.85q5.7,3.42,0,6.85h-38.85v45.7q-3.42,5.7-6.85,0v-45.7h-36.56q-5.71-3.42,0-6.85h36.56V140.34h-29.7Q1429.64,136.92,1435.37,133.49Zm3.42,18.28a244.23,244.23,0,0,1,14.85,45.7q-2.28,5.72-6.85,1.14a255,255,0,0,0-14.85-44.56C1431.94,150.25,1434.22,149.48,1438.79,151.77Zm66.27,0q-5.71,29.72-14.86,48-5.71,3.44-6.85-2.28,9.14-18.27,14.85-46.84C1501.25,147.58,1503.53,148,1505.06,151.77Z"/></g></g></svg>