<?xml version="1.0" standalone="no"?><!DOCTYPE svg PUBLIC "-//W3C//DTD SVG 1.1//EN" "http://www.w3.org/Graphics/SVG/1.1/DTD/svg11.dtd"><svg t="1548609919595" class="icon" style="" viewBox="0 0 1024 1024" version="1.1" xmlns="http://www.w3.org/2000/svg" p-id="4127" xmlns:xlink="http://www.w3.org/1999/xlink" width="48" height="48"><defs><style type="text/css"></style></defs><path d="M956.395788 526.637372 538.186917 109.031229c-2.930749-2.931772-6.335289-5.097088-9.965979-6.511297-11.155061-6.750751-25.875321-5.314029-35.508725 4.318352L74.502319 524.444427c-11.328 11.328-11.328 29.694299 0 41.022299l18.99768 18.99768c11.326976 11.328 29.694299 11.328 41.022299 0l24.52251-24.487717 0 341.827249c0 16.020882 12.986779 29.008684 29.007661 29.008684l7.843642 0 19.024286 0 177.011506 0c1.839905 0 3.617387-0.409322 5.298679-1.160429l10.089799 0c16.019859 0 29.007661-13.248745 29.007661-29.590945L436.328042 690.688705l137.698129 0 0 208.712509c0 16.306384 12.986779 29.525454 29.008684 29.525454l26.867928 0c1.446955 0 2.869351-0.11154 4.259-0.320295l172.448584 0c1.000793 0.105401 2.016937 0.159636 3.045359 0.159636l26.867928 0c16.020882 0 29.008684-12.986779 29.008684-29.008684L865.532337 638.266775c0-16.019859-12.986779-29.007661-29.008684-29.007661l-26.867928 0c-16.018835 0-29.006637 12.986779-29.006637 29.007661l0 205.457372L658.908396 843.724147 658.908396 635.33091c0-16.305361-12.986779-29.52443-29.006637-29.52443l-24.473391 0-2.394537 0L407.320381 605.806479l-21.256116 0-5.610788 0c-16.019859 0-29.007661 13.248745-29.007661 29.589922l0 210.533994L243.928057 845.930395l0-370.713136 270.424013-270.034133 382.02374 381.474224c11.328 11.328 29.695323 11.328 41.022299 0l18.99768-18.998703C967.724811 556.330648 967.724811 537.965371 956.395788 526.637372z" p-id="4128" fill="#5f95ed"></path></svg>