<?xml version="1.0" encoding="utf-8"?>
<!-- Generator: Adobe Illustrator 23.0.1, SVG Export Plug-In . SVG Version: 6.00 Build 0)  -->
<svg version="1.1" id="图层_1" xmlns="http://www.w3.org/2000/svg" xmlns:xlink="http://www.w3.org/1999/xlink" x="0px" y="0px"
	 viewBox="0 0 256 256" style="enable-background:new 0 0 256 256;" xml:space="preserve">
<style type="text/css">
	.st0{fill:#5F95ED;}
</style>
<path class="st0" d="M148.1,104.5c-11.1,10.7-29.1,10.7-40.3,0l-10.1-9.6l20.1-19.3L86.8,45.7c-2.8-2.7-7.3-2.7-10.1,0l-60.4,57.8
	c-2.8,2.7-2.8,7,0,9.6L123,215.4c2.8,2.7,7.3,2.7,10.1,0l5-4.8L123,196.1c-2.8-2.6-2.9-6.9-0.2-9.6c2.7-2.7,7.2-2.8,10.1-0.2
	l0.2,0.2l15.1,14.5l10.1-9.6l-15.1-14.5c-2.8-2.6-2.9-6.9-0.2-9.6c2.7-2.7,7.2-2.8,10.1-0.2l0.2,0.2l15.1,14.5l10.1-9.6l-15.1-14.5
	c-2.9-2.6-3-6.9-0.3-9.6s7.2-2.9,10.1-0.3l0.3,0.3l15.1,14.5l5-4.8c2.8-2.7,2.8-7,0-9.6L148.1,104.5z M203.5,167.2L143.1,225
	c-8.3,8-21.8,8-30.2,0L6.3,122.8c-8.3-8-8.3-20.9,0-28.9L66.6,36c8.3-8,21.8-8,30.2,0L128,65.9L159.2,36c8.3-8,21.8-8,30.2,0
	l60.4,57.9c8.3,8,8.3,20.9,0,28.9L203.5,167.2z"/>
<path class="st0" d="M74.4,136.7c2.1-2.1,4.9-3.2,7.9-3.2s5.8,1.1,7.8,3.2s3.3,4.8,3.3,7.7s-1.1,5.7-3.2,7.8L61.1,181
	c-2.1,2.1-5,3.2-7.9,3.2s-5.8-1.1-7.8-3.2c-4.3-4.1-4.4-11-0.3-15.3c0.1-0.1,0.1-0.1,0.2-0.2L74.4,136.7z M107.3,170.4
	c2.1-2.1,4.9-3.2,7.9-3.2s5.8,1.1,7.8,3.2s3.3,4.8,3.3,7.7s-1.1,5.7-3.2,7.8l-29.1,28.9c-2.1,2.1-4.9,3.2-7.9,3.2s-5.8-1.1-7.8-3.2
	c-4.3-4.1-4.4-11-0.3-15.3c0.1-0.1,0.1-0.1,0.2-0.2C78.1,199.4,107.3,170.4,107.3,170.4z M90.9,153.1c2.1-2.1,4.9-3.2,7.9-3.2
	s5.8,1.1,7.8,3.2s3.3,4.8,3.3,7.7s-1.1,5.7-3.2,7.8l-29.1,28.9c-2.1,2.1-4.9,3.2-7.9,3.2s-5.8-1.1-7.8-3.2c-4.3-4.1-4.4-11-0.3-15.3
	c0.1-0.1,0.1-0.1,0.2-0.2L90.9,153.1z"/>
</svg>
