<?xml version="1.0" encoding="utf-8"?>
<!-- Generator: Adobe Illustrator 23.0.1, SVG Export Plug-In . SVG Version: 6.00 Build 0)  -->
<svg version="1.1" id="图层_1" xmlns="http://www.w3.org/2000/svg" xmlns:xlink="http://www.w3.org/1999/xlink" x="0px" y="0px"
	 viewBox="0 0 256 256" style="enable-background:new 0 0 256 256;" xml:space="preserve">
<style type="text/css">
	.st0{fill:#5F95ED;}
</style>
<path class="st0" d="M254.6,22.6c-1.2-1-2.9-1.4-4.5-1l-77.8,20.7c-0.8,0.2-1.4,0.6-2,1.1L67.2,139.9l-4.7-4.3
	c-2.2-2.1-5.6-3.2-9.1-3.2c-3.3,0-6.3,1-8.5,2.7l-12,9.6c-5,4-5.3,10.8-0.6,15.1l9.7,8.9L3.7,199.4c-2.3,1.8-3.6,4.3-3.7,7
	c-0.1,2.7,1,5.2,3.1,7.2l14.6,13.3c2.2,2,5.3,3.2,8.5,3.2c3,0,5.8-1,8-2.7l38.4-30.8l9.7,8.9c2.3,2.1,5.7,3.4,9.1,3.4
	c3.2,0,6.2-1,8.5-2.9l12-9.6c2.4-2,3.8-4.6,3.9-7.4c0.1-2.8-1.1-5.6-3.4-7.7l-3.9-3.6l118.3-82.6c0.6-0.4,1.1-1,1.4-1.7l27.4-66.9
	C256.2,25.2,255.8,23.7,254.6,22.6L254.6,22.6z M238.3,228.6l14.6-13.3c2.1-2,3.3-4.5,3.1-7.2c-0.1-2.7-1.4-5.1-3.7-7l-38.4-30.8
	l9.7-8.9c2.3-2.1,3.5-4.8,3.4-7.6c-0.1-2.9-1.5-5.5-3.9-7.4l-12-9.6c-2.2-1.8-5.2-2.7-8.5-2.7c-3.6,0-6.9,1.2-9.1,3.2l-50,45.8
	c-2.3,2.1-3.5,4.8-3.4,7.6c0.1,2.8,1.5,5.5,3.9,7.4l12,9.6c2.3,1.9,5.3,2.9,8.5,2.9c3.4,0,6.8-1.2,9.1-3.4l9.7-8.9l38.4,30.8
	c2.2,1.8,5,2.7,7.9,2.7v3.2l0-3.2C233,231.8,236.1,230.6,238.3,228.6L238.3,228.6z M164.8,204.1l-17.3-13.5l54.7-50.5l17.6,13.6
	L164.8,204.1z M189.6,192.7l18.3-16.7l40.3,32.4L229.9,225L189.6,192.7L189.6,192.7z M83.7,44L5.9,23.4c-0.4-0.1-0.9-0.2-1.3-0.2
	c-1.2,0-2.4,0.4-3.2,1.2c-1.2,1-1.6,2.6-1,3.9l27.3,66.9c0.3,0.7,0.8,1.3,1.4,1.7l29,20.3l5.6-5.9L35.8,91.6l-24-58.7L79.9,51
	l26,24.4l6.6-5.2L85.7,45.1C85.2,44.6,84.5,44.2,83.7,44L83.7,44z"/>
</svg>
