<?xml version="1.0" encoding="utf-8"?>
<!-- Generator: Adobe Illustrator 22.1.0, SVG Export Plug-In . SVG Version: 6.00 Build 0)  -->
<svg version="1.1" id="图层_1" xmlns="http://www.w3.org/2000/svg" xmlns:xlink="http://www.w3.org/1999/xlink" x="0px" y="0px"
	 viewBox="0 0 64 64" style="enable-background:new 0 0 64 64;" xml:space="preserve">
<style type="text/css">
	.st0{fill:#8DB5F6;}
</style>
<path class="st0" d="M21.4,24.8V13.1c0-4,3-7.2,6.8-7.2h7.6c3.7,0,6.8,3.2,6.8,7.2v11.8h5.7V13.1C48.2,5.9,42.6,0,35.8,0h-7.6
	c-6.8,0-12.4,5.9-12.4,13.1v11.8H21.4z"/>
<path class="st0" d="M55.3,64H8.5c-3.1,0-5.7-2.5-5.7-5.4V30.2c0-3,2.6-5.4,5.7-5.4h46.8c3.1,0,5.7,2.5,5.7,5.4v28.4
	C61,61.5,58.5,64,55.3,64z M10.9,58.4h41.9c0.9,0,2-1.1,2-1.9v-24c0-0.9-1.1-1.9-2-1.9H10.9c-0.9,0-2,1-2,1.9v24
	C9,57.4,10,58.4,10.9,58.4z"/>
</svg>
